<?xml version="1.0" standalone="no"?>
<!DOCTYPE svg PUBLIC "-//W3C//DTD SVG 1.0//EN" "http://www.w3.org/TR/2001/REC-SVG-20010904/DTD/svg10.dtd">
<svg xmlns="http://www.w3.org/2000/svg" xmlns:xlink="http://www.w3.org/1999/xlink" id="body_1" width="502" height="376">

<g transform="matrix(0.734375 0 0 0.734375 63 -0)">
    <path d="M505 442.7L405.3 343C 400.8 338.5 394.69998 336 388.3 336L388.3 336L372 336C 399.6 300.7 416 256.3 416 208C 416 93.1 322.9 0 208 0C 93.100006 0 0 93.1 0 208C 0 322.9 93.1 416 208 416C 256.3 416 300.7 399.6 336 372L336 372L336 388.3C 336 394.69998 338.5 400.8 343 405.3L343 405.3L442.7 505C 452.1 514.4 467.30002 514.4 476.6 505L476.6 505L504.9 476.7C 514.3 467.30002 514.3 452.1 505 442.7zM208 336C 137.3 336 80 278.8 80 208C 80 137.3 137.2 80 208 80C 278.7 80 336 137.2 336 208C 336 278.7 278.8 336 208 336z" stroke="none" fill="#000000" fill-rule="nonzero" fill-opacity="0" />
</g>
</svg>